<svg version="1.1" xmlns="http://www.w3.org/2000/svg" xmlns:xlink="http://www.w3.org/1999/xlink" width="557.12451171875" height="148"><defs/><g><text fill="#eeeeee" stroke="none" font-family="Arial" font-size="24px" font-style="normal" font-weight="normal" text-decoration="none" x="0" y="0">UNREGISTERED</text><text fill="#eeeeee" stroke="none" font-family="Arial" font-size="24px" font-style="normal" font-weight="normal" text-decoration="none" x="0" y="30">UNREGISTERED</text><text fill="#eeeeee" stroke="none" font-family="Arial" font-size="24px" font-style="normal" font-weight="normal" text-decoration="none" x="0" y="60">UNREGISTERED</text><text fill="#eeeeee" stroke="none" font-family="Arial" font-size="24px" font-style="normal" font-weight="normal" text-decoration="none" x="0" y="90">UNREGISTERED</text><text fill="#eeeeee" stroke="none" font-family="Arial" font-size="24px" font-style="normal" font-weight="normal" text-decoration="none" x="0" y="120">UNREGISTERED</text><text fill="#eeeeee" stroke="none" font-family="Arial" font-size="24px" font-style="normal" font-weight="normal" text-decoration="none" x="200" y="0">UNREGISTERED</text><text fill="#eeeeee" stroke="none" font-family="Arial" font-size="24px" font-style="normal" font-weight="normal" text-decoration="none" x="200" y="30">UNREGISTERED</text><text fill="#eeeeee" stroke="none" font-family="Arial" font-size="24px" font-style="normal" font-weight="normal" text-decoration="none" x="200" y="60">UNREGISTERED</text><text fill="#eeeeee" stroke="none" font-family="Arial" font-size="24px" font-style="normal" font-weight="normal" text-decoration="none" x="200" y="90">UNREGISTERED</text><text fill="#eeeeee" stroke="none" font-family="Arial" font-size="24px" font-style="normal" font-weight="normal" text-decoration="none" x="200" y="120">UNREGISTERED</text><text fill="#eeeeee" stroke="none" font-family="Arial" font-size="24px" font-style="normal" font-weight="normal" text-decoration="none" x="400" y="0">UNREGISTERED</text><text fill="#eeeeee" stroke="none" font-family="Arial" font-size="24px" font-style="normal" font-weight="normal" text-decoration="none" x="400" y="30">UNREGISTERED</text><text fill="#eeeeee" stroke="none" font-family="Arial" font-size="24px" font-style="normal" font-weight="normal" text-decoration="none" x="400" y="60">UNREGISTERED</text><text fill="#eeeeee" stroke="none" font-family="Arial" font-size="24px" font-style="normal" font-weight="normal" text-decoration="none" x="400" y="90">UNREGISTERED</text><text fill="#eeeeee" stroke="none" font-family="Arial" font-size="24px" font-style="normal" font-weight="normal" text-decoration="none" x="400" y="120">UNREGISTERED</text><g transform="translate(-140,-160) scale(1,1)"><rect fill="#C0C0C0" stroke="none" x="157" y="177" width="118.39999999999998" height="15" opacity="0.2"/></g><g transform="translate(-140,-160) scale(1,1)"><rect fill="#C0C0C0" stroke="none" x="157" y="191" width="296" height="114" opacity="0.2"/></g><g transform="translate(-140,-160) scale(1,1)"><rect fill="#ffffff" stroke="none" x="150" y="185" width="296" height="113"/></g><g transform="translate(-140,-160) scale(1,1)"><path fill="none" stroke="#000000" d="M 150 185 L 446 185 L 446 298 L 150 298 L 150 185 Z Z" stroke-miterlimit="10"/></g><g transform="translate(-140,-160) scale(1,1)"><rect fill="#ffffff" stroke="none" x="150" y="170" width="118.39999999999998" height="15"/></g><g transform="translate(-140,-160) scale(1,1)"><path fill="none" stroke="#000000" d="M 150 170 L 268.4 170 L 268.4 185 L 150 185 L 150 170 Z Z" stroke-miterlimit="10"/></g><g transform="translate(-140,-160) scale(1,1)"><rect fill="#ffffff" stroke="none" x="150" y="184" width="296" height="114"/></g><g transform="translate(-140,-160) scale(1,1)"><path fill="none" stroke="#000000" d="M 150 184 L 446 184 L 446 298 L 150 298 L 150 184 Z Z" stroke-miterlimit="10"/></g><g transform="translate(-140,-160) scale(1,1)"><g><path fill="none" stroke="none"/><text fill="#000000" stroke="none" font-family="Arial" font-size="13px" font-style="normal" font-weight="bold" text-decoration="none" x="271.6318359375" y="204.5">Registrar</text></g></g><g transform="translate(-140,-160) scale(1,1)"><path fill="#C0C0C0" stroke="none" d="M 181 242 C 181 232.6111584 235.6212544 225 303 225 C 370.3787456 225 425 232.6111584 425 242 C 425 251.3888416 370.3787456 259 303 259 C 235.6212544 259 181 251.3888416 181 242 Z" opacity="0.2"/></g><g transform="translate(-140,-160) scale(1,1)"><path fill="#ffffff" stroke="none" d="M 174 235 C 174 225.6111584 228.6212544 218 296 218 C 363.3787456 218 418 225.6111584 418 235 C 418 244.3888416 363.3787456 252 296 252 C 228.6212544 252 174 244.3888416 174 235 Z"/></g><g transform="translate(-140,-160) scale(1,1)"><path fill="none" stroke="#000000" d="M 174 235 C 174 225.6111584 228.6212544 218 296 218 C 363.3787456 218 418 225.6111584 418 235 C 418 244.3888416 363.3787456 252 296 252 C 228.6212544 252 174 244.3888416 174 235 Z" stroke-miterlimit="10"/></g><g transform="translate(-140,-160) scale(1,1)"><g><path fill="none" stroke="none"/><text fill="#000000" stroke="none" font-family="Arial" font-size="13px" font-style="normal" font-weight="bold" text-decoration="none" x="219.761474609375" y="242">Registrar empleado nuevo</text></g></g><g transform="translate(-140,-160) scale(1,1)"><path fill="#ffffff" stroke="none" d="M 642.8829831321023 217.68 C 642.8829831321023 212.886167936 646.7688254570477 209 651.562255859375 209 C 656.3556862617023 209 660.2415285866477 212.886167936 660.2415285866477 217.68 C 660.2415285866477 222.47383206400002 656.3556862617023 226.36 651.562255859375 226.36 C 646.7688254570477 226.36 642.8829831321023 222.47383206400002 642.8829831321023 217.68 Z"/></g><g transform="translate(-140,-160) scale(1,1)"><path fill="none" stroke="#000000" d="M 642.8829831321023 217.68 C 642.8829831321023 212.886167936 646.7688254570477 209 651.562255859375 209 C 656.3556862617023 209 660.2415285866477 212.886167936 660.2415285866477 217.68 C 660.2415285866477 222.47383206400002 656.3556862617023 226.36 651.562255859375 226.36 C 646.7688254570477 226.36 642.8829831321023 222.47383206400002 642.8829831321023 217.68 Z" stroke-miterlimit="10"/></g><g transform="translate(-140,-160) scale(1,1)"><path fill="none" stroke="#000000" d="M 651.562255859375 226.36 L 651.562255859375 243.64" stroke-miterlimit="10"/></g><g transform="translate(-140,-160) scale(1,1)"><path fill="none" stroke="#000000" d="M 642.3724376775568 232.84 L 660.7520740411932 232.84" stroke-miterlimit="10"/></g><g transform="translate(-140,-160) scale(1,1)"><path fill="none" stroke="#000000" d="M 651.562255859375 243.64 L 638.7986194957386 261" stroke-miterlimit="10"/></g><g transform="translate(-140,-160) scale(1,1)"><path fill="none" stroke="#000000" d="M 651.562255859375 243.64 L 664.3258922230114 261" stroke-miterlimit="10"/></g><g transform="translate(-140,-160) scale(1,1)"><g><path fill="none" stroke="none"/><text fill="#000000" stroke="none" font-family="Arial" font-size="13px" font-style="normal" font-weight="bold" text-decoration="none" x="622.293212890625" y="281.5">Empleado</text></g></g><g transform="translate(-140,-160) scale(1,1)"><path fill="none" stroke="#000000" d="M 615 246 L 419 239" stroke-miterlimit="10"/></g><g transform="translate(-140,-160) scale(1,1)"><path fill="none" stroke="#000000" d="M 429.3064438849527 235.15588573968978 L 419 239 L 429.00595562208997 243.56955709984746" stroke-miterlimit="10"/></g></g></svg>