<svg version="1.1" xmlns="http://www.w3.org/2000/svg" xmlns:xlink="http://www.w3.org/1999/xlink" width="589.7744140625" height="236"><defs/><g><text fill="#eeeeee" stroke="none" font-family="Arial" font-size="24px" font-style="normal" font-weight="normal" text-decoration="none" x="0" y="0">UNREGISTERED</text><text fill="#eeeeee" stroke="none" font-family="Arial" font-size="24px" font-style="normal" font-weight="normal" text-decoration="none" x="0" y="30">UNREGISTERED</text><text fill="#eeeeee" stroke="none" font-family="Arial" font-size="24px" font-style="normal" font-weight="normal" text-decoration="none" x="0" y="60">UNREGISTERED</text><text fill="#eeeeee" stroke="none" font-family="Arial" font-size="24px" font-style="normal" font-weight="normal" text-decoration="none" x="0" y="90">UNREGISTERED</text><text fill="#eeeeee" stroke="none" font-family="Arial" font-size="24px" font-style="normal" font-weight="normal" text-decoration="none" x="0" y="120">UNREGISTERED</text><text fill="#eeeeee" stroke="none" font-family="Arial" font-size="24px" font-style="normal" font-weight="normal" text-decoration="none" x="0" y="150">UNREGISTERED</text><text fill="#eeeeee" stroke="none" font-family="Arial" font-size="24px" font-style="normal" font-weight="normal" text-decoration="none" x="0" y="180">UNREGISTERED</text><text fill="#eeeeee" stroke="none" font-family="Arial" font-size="24px" font-style="normal" font-weight="normal" text-decoration="none" x="0" y="210">UNREGISTERED</text><text fill="#eeeeee" stroke="none" font-family="Arial" font-size="24px" font-style="normal" font-weight="normal" text-decoration="none" x="200" y="0">UNREGISTERED</text><text fill="#eeeeee" stroke="none" font-family="Arial" font-size="24px" font-style="normal" font-weight="normal" text-decoration="none" x="200" y="30">UNREGISTERED</text><text fill="#eeeeee" stroke="none" font-family="Arial" font-size="24px" font-style="normal" font-weight="normal" text-decoration="none" x="200" y="60">UNREGISTERED</text><text fill="#eeeeee" stroke="none" font-family="Arial" font-size="24px" font-style="normal" font-weight="normal" text-decoration="none" x="200" y="90">UNREGISTERED</text><text fill="#eeeeee" stroke="none" font-family="Arial" font-size="24px" font-style="normal" font-weight="normal" text-decoration="none" x="200" y="120">UNREGISTERED</text><text fill="#eeeeee" stroke="none" font-family="Arial" font-size="24px" font-style="normal" font-weight="normal" text-decoration="none" x="200" y="150">UNREGISTERED</text><text fill="#eeeeee" stroke="none" font-family="Arial" font-size="24px" font-style="normal" font-weight="normal" text-decoration="none" x="200" y="180">UNREGISTERED</text><text fill="#eeeeee" stroke="none" font-family="Arial" font-size="24px" font-style="normal" font-weight="normal" text-decoration="none" x="200" y="210">UNREGISTERED</text><text fill="#eeeeee" stroke="none" font-family="Arial" font-size="24px" font-style="normal" font-weight="normal" text-decoration="none" x="400" y="0">UNREGISTERED</text><text fill="#eeeeee" stroke="none" font-family="Arial" font-size="24px" font-style="normal" font-weight="normal" text-decoration="none" x="400" y="30">UNREGISTERED</text><text fill="#eeeeee" stroke="none" font-family="Arial" font-size="24px" font-style="normal" font-weight="normal" text-decoration="none" x="400" y="60">UNREGISTERED</text><text fill="#eeeeee" stroke="none" font-family="Arial" font-size="24px" font-style="normal" font-weight="normal" text-decoration="none" x="400" y="90">UNREGISTERED</text><text fill="#eeeeee" stroke="none" font-family="Arial" font-size="24px" font-style="normal" font-weight="normal" text-decoration="none" x="400" y="120">UNREGISTERED</text><text fill="#eeeeee" stroke="none" font-family="Arial" font-size="24px" font-style="normal" font-weight="normal" text-decoration="none" x="400" y="150">UNREGISTERED</text><text fill="#eeeeee" stroke="none" font-family="Arial" font-size="24px" font-style="normal" font-weight="normal" text-decoration="none" x="400" y="180">UNREGISTERED</text><text fill="#eeeeee" stroke="none" font-family="Arial" font-size="24px" font-style="normal" font-weight="normal" text-decoration="none" x="400" y="210">UNREGISTERED</text><g transform="translate(-134,-150) scale(1,1)"><rect fill="#C0C0C0" stroke="none" x="159" y="167" width="144" height="15" opacity="0.2"/></g><g transform="translate(-134,-150) scale(1,1)"><rect fill="#C0C0C0" stroke="none" x="159" y="181" width="360" height="202" opacity="0.2"/></g><g transform="translate(-134,-150) scale(1,1)"><rect fill="#ffffff" stroke="none" x="152" y="175" width="360" height="201"/></g><g transform="translate(-134,-150) scale(1,1)"><path fill="none" stroke="#000000" d="M 152 175 L 512 175 L 512 376 L 152 376 L 152 175 Z Z" stroke-miterlimit="10"/></g><g transform="translate(-134,-150) scale(1,1)"><rect fill="#ffffff" stroke="none" x="152" y="160" width="144" height="15"/></g><g transform="translate(-134,-150) scale(1,1)"><path fill="none" stroke="#000000" d="M 152 160 L 296 160 L 296 175 L 152 175 L 152 160 Z Z" stroke-miterlimit="10"/></g><g transform="translate(-134,-150) scale(1,1)"><rect fill="#ffffff" stroke="none" x="152" y="174" width="360" height="202"/></g><g transform="translate(-134,-150) scale(1,1)"><path fill="none" stroke="#000000" d="M 152 174 L 512 174 L 512 376 L 152 376 L 152 174 Z Z" stroke-miterlimit="10"/></g><g transform="translate(-134,-150) scale(1,1)"><g><path fill="none" stroke="none"/><text fill="#000000" stroke="none" font-family="Arial" font-size="13px" font-style="normal" font-weight="bold" text-decoration="none" x="278.52734375" y="194.5">Control del horario</text></g></g><g transform="translate(-134,-150) scale(1,1)"><path fill="#C0C0C0" stroke="none" d="M 151 229.5 C 151 221.4918704 232.9318816 215 334 215 C 435.0681184 215 517 221.4918704 517 229.5 C 517 237.5081296 435.0681184 244 334 244 C 232.9318816 244 151 237.5081296 151 229.5 Z" opacity="0.2"/></g><g transform="translate(-134,-150) scale(1,1)"><path fill="#ffffff" stroke="none" d="M 144 222.5 C 144 214.4918704 225.9318816 208 327 208 C 428.0681184 208 510 214.4918704 510 222.5 C 510 230.5081296 428.0681184 237 327 237 C 225.9318816 237 144 230.5081296 144 222.5 Z"/></g><g transform="translate(-134,-150) scale(1,1)"><path fill="none" stroke="#000000" d="M 144 222.5 C 144 214.4918704 225.9318816 208 327 208 C 428.0681184 208 510 214.4918704 510 222.5 C 510 230.5081296 428.0681184 237 327 237 C 225.9318816 237 144 230.5081296 144 222.5 Z" stroke-miterlimit="10"/></g><g transform="translate(-134,-150) scale(1,1)"><path fill="none" stroke="#000000" d="M 144 242 L 510 242" stroke-miterlimit="10"/></g><g transform="translate(-134,-150) scale(1,1)"><g><path fill="none" stroke="none"/><text fill="#000000" stroke="none" font-family="Arial" font-size="13px" font-style="normal" font-weight="bold" text-decoration="none" x="288.70458984375" y="232">Huella Digital</text></g></g><g transform="translate(-134,-150) scale(1,1)"><g><path fill="none" stroke="none"/><text fill="#000000" stroke="none" font-family="Arial" font-size="13px" font-style="normal" font-weight="normal" text-decoration="none" x="149" y="259.5">Registrar entrada al iniciar la jornada</text></g></g><g transform="translate(-134,-150) scale(1,1)"><path fill="#ffffff" stroke="none" d="M 648.2079343039773 209.68 C 648.2079343039773 204.886167936 652.0937766289227 201 656.88720703125 201 C 661.6806374335773 201 665.5664797585227 204.886167936 665.5664797585227 209.68 C 665.5664797585227 214.47383206400002 661.6806374335773 218.36 656.88720703125 218.36 C 652.0937766289227 218.36 648.2079343039773 214.47383206400002 648.2079343039773 209.68 Z"/></g><g transform="translate(-134,-150) scale(1,1)"><path fill="none" stroke="#000000" d="M 648.2079343039773 209.68 C 648.2079343039773 204.886167936 652.0937766289227 201 656.88720703125 201 C 661.6806374335773 201 665.5664797585227 204.886167936 665.5664797585227 209.68 C 665.5664797585227 214.47383206400002 661.6806374335773 218.36 656.88720703125 218.36 C 652.0937766289227 218.36 648.2079343039773 214.47383206400002 648.2079343039773 209.68 Z" stroke-miterlimit="10"/></g><g transform="translate(-134,-150) scale(1,1)"><path fill="none" stroke="#000000" d="M 656.88720703125 218.36 L 656.88720703125 235.64" stroke-miterlimit="10"/></g><g transform="translate(-134,-150) scale(1,1)"><path fill="none" stroke="#000000" d="M 647.6973888494318 224.84 L 666.0770252130682 224.84" stroke-miterlimit="10"/></g><g transform="translate(-134,-150) scale(1,1)"><path fill="none" stroke="#000000" d="M 656.88720703125 235.64 L 644.1235706676136 253" stroke-miterlimit="10"/></g><g transform="translate(-134,-150) scale(1,1)"><path fill="none" stroke="#000000" d="M 656.88720703125 235.64 L 669.6508433948864 253" stroke-miterlimit="10"/></g><g transform="translate(-134,-150) scale(1,1)"><g><path fill="none" stroke="none"/><text fill="#000000" stroke="none" font-family="Arial" font-size="13px" font-style="normal" font-weight="bold" text-decoration="none" x="607.753173828125" y="273.5">PersonalSistema</text></g></g><g transform="translate(-134,-150) scale(1,1)"><path fill="#C0C0C0" stroke="none" d="M 183 288 C 183 278.6111584 256.42529279999997 271 347 271 C 437.57470720000003 271 511 278.6111584 511 288 C 511 297.3888416 437.57470720000003 305 347 305 C 256.42529279999997 305 183 297.3888416 183 288 Z" opacity="0.2"/></g><g transform="translate(-134,-150) scale(1,1)"><path fill="#ffffff" stroke="none" d="M 176 281 C 176 271.6111584 249.4252928 264 340 264 C 430.57470720000003 264 504 271.6111584 504 281 C 504 290.3888416 430.57470720000003 298 340 298 C 249.4252928 298 176 290.3888416 176 281 Z"/></g><g transform="translate(-134,-150) scale(1,1)"><path fill="none" stroke="#000000" d="M 176 281 C 176 271.6111584 249.4252928 264 340 264 C 430.57470720000003 264 504 271.6111584 504 281 C 504 290.3888416 430.57470720000003 298 340 298 C 249.4252928 298 176 290.3888416 176 281 Z" stroke-miterlimit="10"/></g><g transform="translate(-134,-150) scale(1,1)"><g><path fill="none" stroke="none"/><text fill="#000000" stroke="none" font-family="Arial" font-size="13px" font-style="normal" font-weight="bold" text-decoration="none" x="294.8427734375" y="288">Registrar salida</text></g></g><g transform="translate(-134,-150) scale(1,1)"><path fill="#C0C0C0" stroke="none" d="M 159 336 C 159 326.6111584 232.873008 319 324 319 C 415.126992 319 489 326.6111584 489 336 C 489 345.3888416 415.126992 353 324 353 C 232.873008 353 159 345.3888416 159 336 Z" opacity="0.2"/></g><g transform="translate(-134,-150) scale(1,1)"><path fill="#ffffff" stroke="none" d="M 152 329 C 152 319.6111584 225.873008 312 317 312 C 408.126992 312 482 319.6111584 482 329 C 482 338.3888416 408.126992 346 317 346 C 225.873008 346 152 338.3888416 152 329 Z"/></g><g transform="translate(-134,-150) scale(1,1)"><path fill="none" stroke="#000000" d="M 152 329 C 152 319.6111584 225.873008 312 317 312 C 408.126992 312 482 319.6111584 482 329 C 482 338.3888416 408.126992 346 317 346 C 225.873008 346 152 338.3888416 152 329 Z" stroke-miterlimit="10"/></g><g transform="translate(-134,-150) scale(1,1)"><g><path fill="none" stroke="none"/><text fill="#000000" stroke="none" font-family="Arial" font-size="13px" font-style="normal" font-weight="bold" text-decoration="none" x="266.780517578125" y="336">Registrar entrada</text></g></g><g transform="translate(-134,-150) scale(1,1)"><path fill="none" stroke="#000000" d="M 599 238 L 511 238" stroke-miterlimit="10"/></g><g transform="translate(-134,-150) scale(1,1)"><path fill="none" stroke="#000000" d="M 521.1626748576241 233.790482243984 L 511 238 L 521.1626748576241 242.209517756016" stroke-miterlimit="10"/></g><g transform="translate(-134,-150) scale(1,1)"><path fill="none" stroke="#000000" d="M 335 263 L 327 236" stroke-miterlimit="10" stroke-dasharray="3"/></g><g transform="translate(-134,-150) scale(1,1)"><path fill="none" stroke="#000000" d="M 333.92317500537956 244.54807860544625 L 327 236 L 325.8510196456184 246.93982834167178" stroke-miterlimit="10"/></g><g transform="translate(-134,-150) scale(1,1)"><path fill="none" stroke="#000000" d="M 319 311 L 324 266" stroke-miterlimit="10" stroke-dasharray="3"/></g><g transform="translate(-134,-150) scale(1,1)"><path fill="none" stroke="#000000" d="M 327.06149153499416 276.5653807116052 L 324 266 L 318.693949077946 275.63565377193316" stroke-miterlimit="10"/></g></g></svg>