<svg version="1.1" xmlns="http://www.w3.org/2000/svg" xmlns:xlink="http://www.w3.org/1999/xlink" width="640" height="260"><defs/><g><text fill="#eeeeee" stroke="none" font-family="Arial" font-size="24px" font-style="normal" font-weight="normal" text-decoration="none" x="0" y="0">UNREGISTERED</text><text fill="#eeeeee" stroke="none" font-family="Arial" font-size="24px" font-style="normal" font-weight="normal" text-decoration="none" x="0" y="30">UNREGISTERED</text><text fill="#eeeeee" stroke="none" font-family="Arial" font-size="24px" font-style="normal" font-weight="normal" text-decoration="none" x="0" y="60">UNREGISTERED</text><text fill="#eeeeee" stroke="none" font-family="Arial" font-size="24px" font-style="normal" font-weight="normal" text-decoration="none" x="0" y="90">UNREGISTERED</text><text fill="#eeeeee" stroke="none" font-family="Arial" font-size="24px" font-style="normal" font-weight="normal" text-decoration="none" x="0" y="120">UNREGISTERED</text><text fill="#eeeeee" stroke="none" font-family="Arial" font-size="24px" font-style="normal" font-weight="normal" text-decoration="none" x="0" y="150">UNREGISTERED</text><text fill="#eeeeee" stroke="none" font-family="Arial" font-size="24px" font-style="normal" font-weight="normal" text-decoration="none" x="0" y="180">UNREGISTERED</text><text fill="#eeeeee" stroke="none" font-family="Arial" font-size="24px" font-style="normal" font-weight="normal" text-decoration="none" x="0" y="210">UNREGISTERED</text><text fill="#eeeeee" stroke="none" font-family="Arial" font-size="24px" font-style="normal" font-weight="normal" text-decoration="none" x="0" y="240">UNREGISTERED</text><text fill="#eeeeee" stroke="none" font-family="Arial" font-size="24px" font-style="normal" font-weight="normal" text-decoration="none" x="200" y="0">UNREGISTERED</text><text fill="#eeeeee" stroke="none" font-family="Arial" font-size="24px" font-style="normal" font-weight="normal" text-decoration="none" x="200" y="30">UNREGISTERED</text><text fill="#eeeeee" stroke="none" font-family="Arial" font-size="24px" font-style="normal" font-weight="normal" text-decoration="none" x="200" y="60">UNREGISTERED</text><text fill="#eeeeee" stroke="none" font-family="Arial" font-size="24px" font-style="normal" font-weight="normal" text-decoration="none" x="200" y="90">UNREGISTERED</text><text fill="#eeeeee" stroke="none" font-family="Arial" font-size="24px" font-style="normal" font-weight="normal" text-decoration="none" x="200" y="120">UNREGISTERED</text><text fill="#eeeeee" stroke="none" font-family="Arial" font-size="24px" font-style="normal" font-weight="normal" text-decoration="none" x="200" y="150">UNREGISTERED</text><text fill="#eeeeee" stroke="none" font-family="Arial" font-size="24px" font-style="normal" font-weight="normal" text-decoration="none" x="200" y="180">UNREGISTERED</text><text fill="#eeeeee" stroke="none" font-family="Arial" font-size="24px" font-style="normal" font-weight="normal" text-decoration="none" x="200" y="210">UNREGISTERED</text><text fill="#eeeeee" stroke="none" font-family="Arial" font-size="24px" font-style="normal" font-weight="normal" text-decoration="none" x="200" y="240">UNREGISTERED</text><text fill="#eeeeee" stroke="none" font-family="Arial" font-size="24px" font-style="normal" font-weight="normal" text-decoration="none" x="400" y="0">UNREGISTERED</text><text fill="#eeeeee" stroke="none" font-family="Arial" font-size="24px" font-style="normal" font-weight="normal" text-decoration="none" x="400" y="30">UNREGISTERED</text><text fill="#eeeeee" stroke="none" font-family="Arial" font-size="24px" font-style="normal" font-weight="normal" text-decoration="none" x="400" y="60">UNREGISTERED</text><text fill="#eeeeee" stroke="none" font-family="Arial" font-size="24px" font-style="normal" font-weight="normal" text-decoration="none" x="400" y="90">UNREGISTERED</text><text fill="#eeeeee" stroke="none" font-family="Arial" font-size="24px" font-style="normal" font-weight="normal" text-decoration="none" x="400" y="120">UNREGISTERED</text><text fill="#eeeeee" stroke="none" font-family="Arial" font-size="24px" font-style="normal" font-weight="normal" text-decoration="none" x="400" y="150">UNREGISTERED</text><text fill="#eeeeee" stroke="none" font-family="Arial" font-size="24px" font-style="normal" font-weight="normal" text-decoration="none" x="400" y="180">UNREGISTERED</text><text fill="#eeeeee" stroke="none" font-family="Arial" font-size="24px" font-style="normal" font-weight="normal" text-decoration="none" x="400" y="210">UNREGISTERED</text><text fill="#eeeeee" stroke="none" font-family="Arial" font-size="24px" font-style="normal" font-weight="normal" text-decoration="none" x="400" y="240">UNREGISTERED</text><text fill="#eeeeee" stroke="none" font-family="Arial" font-size="24px" font-style="normal" font-weight="normal" text-decoration="none" x="600" y="0">UNREGISTERED</text><text fill="#eeeeee" stroke="none" font-family="Arial" font-size="24px" font-style="normal" font-weight="normal" text-decoration="none" x="600" y="30">UNREGISTERED</text><text fill="#eeeeee" stroke="none" font-family="Arial" font-size="24px" font-style="normal" font-weight="normal" text-decoration="none" x="600" y="60">UNREGISTERED</text><text fill="#eeeeee" stroke="none" font-family="Arial" font-size="24px" font-style="normal" font-weight="normal" text-decoration="none" x="600" y="90">UNREGISTERED</text><text fill="#eeeeee" stroke="none" font-family="Arial" font-size="24px" font-style="normal" font-weight="normal" text-decoration="none" x="600" y="120">UNREGISTERED</text><text fill="#eeeeee" stroke="none" font-family="Arial" font-size="24px" font-style="normal" font-weight="normal" text-decoration="none" x="600" y="150">UNREGISTERED</text><text fill="#eeeeee" stroke="none" font-family="Arial" font-size="24px" font-style="normal" font-weight="normal" text-decoration="none" x="600" y="180">UNREGISTERED</text><text fill="#eeeeee" stroke="none" font-family="Arial" font-size="24px" font-style="normal" font-weight="normal" text-decoration="none" x="600" y="210">UNREGISTERED</text><text fill="#eeeeee" stroke="none" font-family="Arial" font-size="24px" font-style="normal" font-weight="normal" text-decoration="none" x="600" y="240">UNREGISTERED</text><g transform="translate(-614,-464) scale(1,1)"><rect fill="#C0C0C0" stroke="none" x="835" y="481" width="166.39999999999998" height="15" opacity="0.2"/></g><g transform="translate(-614,-464) scale(1,1)"><rect fill="#C0C0C0" stroke="none" x="835" y="495" width="416" height="226" opacity="0.2"/></g><g transform="translate(-614,-464) scale(1,1)"><rect fill="#ffffff" stroke="none" x="828" y="489" width="416" height="225"/></g><g transform="translate(-614,-464) scale(1,1)"><path fill="none" stroke="#000000" d="M 828 489 L 1244 489 L 1244 714 L 828 714 L 828 489 Z Z" stroke-miterlimit="10"/></g><g transform="translate(-614,-464) scale(1,1)"><rect fill="#ffffff" stroke="none" x="828" y="474" width="166.39999999999998" height="15"/></g><g transform="translate(-614,-464) scale(1,1)"><path fill="none" stroke="#000000" d="M 828 474 L 994.4 474 L 994.4 489 L 828 489 L 828 474 Z Z" stroke-miterlimit="10"/></g><g transform="translate(-614,-464) scale(1,1)"><rect fill="#ffffff" stroke="none" x="828" y="488" width="416" height="226"/></g><g transform="translate(-614,-464) scale(1,1)"><path fill="none" stroke="#000000" d="M 828 488 L 1244 488 L 1244 714 L 828 714 L 828 488 Z Z" stroke-miterlimit="10"/></g><g transform="translate(-614,-464) scale(1,1)"><g><path fill="none" stroke="none"/><text fill="#000000" stroke="none" font-family="Arial" font-size="13px" font-style="normal" font-weight="bold" text-decoration="none" x="1016.490478515625" y="508.5">Kiosko</text></g></g><g transform="translate(-614,-464) scale(1,1)"><path fill="#C0C0C0" stroke="none" d="M 843 538 C 843 528.6111584 932.9907552 521 1044 521 C 1155.0092448 521 1245 528.6111584 1245 538 C 1245 547.3888416 1155.0092448 555 1044 555 C 932.9907552 555 843 547.3888416 843 538 Z" opacity="0.2"/></g><g transform="translate(-614,-464) scale(1,1)"><path fill="#ffffff" stroke="none" d="M 836 531 C 836 521.6111584 925.9907552 514 1037 514 C 1148.0092448 514 1238 521.6111584 1238 531 C 1238 540.3888416 1148.0092448 548 1037 548 C 925.9907552 548 836 540.3888416 836 531 Z"/></g><g transform="translate(-614,-464) scale(1,1)"><path fill="none" stroke="#000000" d="M 836 531 C 836 521.6111584 925.9907552 514 1037 514 C 1148.0092448 514 1238 521.6111584 1238 531 C 1238 540.3888416 1148.0092448 548 1037 548 C 925.9907552 548 836 540.3888416 836 531 Z" stroke-miterlimit="10"/></g><g transform="translate(-614,-464) scale(1,1)"><g><path fill="none" stroke="none"/><text fill="#000000" stroke="none" font-family="Arial" font-size="13px" font-style="normal" font-weight="bold" text-decoration="none" x="910.170654296875" y="538">Liquidación de sueldo en kiosko del sistema</text></g></g><g transform="translate(-614,-464) scale(1,1)"><path fill="#C0C0C0" stroke="none" d="M 867 586 C 867 576.6111584 941.7684384 569 1034 569 C 1126.2315616 569 1201 576.6111584 1201 586 C 1201 595.3888416 1126.2315616 603 1034 603 C 941.7684384 603 867 595.3888416 867 586 Z" opacity="0.2"/></g><g transform="translate(-614,-464) scale(1,1)"><path fill="#ffffff" stroke="none" d="M 860 579 C 860 569.6111584 934.7684384 562 1027 562 C 1119.2315616 562 1194 569.6111584 1194 579 C 1194 588.3888416 1119.2315616 596 1027 596 C 934.7684384 596 860 588.3888416 860 579 Z"/></g><g transform="translate(-614,-464) scale(1,1)"><path fill="none" stroke="#000000" d="M 860 579 C 860 569.6111584 934.7684384 562 1027 562 C 1119.2315616 562 1194 569.6111584 1194 579 C 1194 588.3888416 1119.2315616 596 1027 596 C 934.7684384 596 860 588.3888416 860 579 Z" stroke-miterlimit="10"/></g><g transform="translate(-614,-464) scale(1,1)"><g><path fill="none" stroke="none"/><text fill="#000000" stroke="none" font-family="Arial" font-size="13px" font-style="normal" font-weight="bold" text-decoration="none" x="921.50830078125" y="586">Revisar información como empleado</text></g></g><g transform="translate(-614,-464) scale(1,1)"><path fill="#C0C0C0" stroke="none" d="M 883 626 C 883 616.6111584 947.0232736 609 1026 609 C 1104.9767264 609 1169 616.6111584 1169 626 C 1169 635.3888416 1104.9767264 643 1026 643 C 947.0232736 643 883 635.3888416 883 626 Z" opacity="0.2"/></g><g transform="translate(-614,-464) scale(1,1)"><path fill="#ffffff" stroke="none" d="M 876 619 C 876 609.6111584 940.0232736 602 1019 602 C 1097.9767264 602 1162 609.6111584 1162 619 C 1162 628.3888416 1097.9767264 636 1019 636 C 940.0232736 636 876 628.3888416 876 619 Z"/></g><g transform="translate(-614,-464) scale(1,1)"><path fill="none" stroke="#000000" d="M 876 619 C 876 609.6111584 940.0232736 602 1019 602 C 1097.9767264 602 1162 609.6111584 1162 619 C 1162 628.3888416 1097.9767264 636 1019 636 C 940.0232736 636 876 628.3888416 876 619 Z" stroke-miterlimit="10"/></g><g transform="translate(-614,-464) scale(1,1)"><g><path fill="none" stroke="none"/><text fill="#000000" stroke="none" font-family="Arial" font-size="13px" font-style="normal" font-weight="bold" text-decoration="none" x="928.66650390625" y="626">Leer registro de días de trabajo</text></g></g><g transform="translate(-614,-464) scale(1,1)"><path fill="#C0C0C0" stroke="none" d="M 875 666 C 875 656.6111584 950.2161536 649 1043 649 C 1135.7838464 649 1211 656.6111584 1211 666 C 1211 675.3888416 1135.7838464 683 1043 683 C 950.2161536 683 875 675.3888416 875 666 Z" opacity="0.2"/></g><g transform="translate(-614,-464) scale(1,1)"><path fill="#ffffff" stroke="none" d="M 868 659 C 868 649.6111584 943.2161536 642 1036 642 C 1128.7838464 642 1204 649.6111584 1204 659 C 1204 668.3888416 1128.7838464 676 1036 676 C 943.2161536 676 868 668.3888416 868 659 Z"/></g><g transform="translate(-614,-464) scale(1,1)"><path fill="none" stroke="#000000" d="M 868 659 C 868 649.6111584 943.2161536 642 1036 642 C 1128.7838464 642 1204 649.6111584 1204 659 C 1204 668.3888416 1128.7838464 676 1036 676 C 943.2161536 676 868 668.3888416 868 659 Z" stroke-miterlimit="10"/></g><g transform="translate(-614,-464) scale(1,1)"><g><path fill="none" stroke="none"/><text fill="#000000" stroke="none" font-family="Arial" font-size="13px" font-style="normal" font-weight="bold" text-decoration="none" x="953.985107421875" y="666">Información como empleado</text></g></g><g transform="translate(-614,-464) scale(1,1)"><path fill="#ffffff" stroke="none" d="M 672.2079343039773 561.6800000000001 C 672.2079343039773 556.8861679360001 676.0937766289227 553 680.88720703125 553 C 685.6806374335773 553 689.5664797585227 556.8861679360001 689.5664797585227 561.6800000000001 C 689.5664797585227 566.473832064 685.6806374335773 570.36 680.88720703125 570.36 C 676.0937766289227 570.36 672.2079343039773 566.473832064 672.2079343039773 561.6800000000001 Z"/></g><g transform="translate(-614,-464) scale(1,1)"><path fill="none" stroke="#000000" d="M 672.2079343039773 561.6800000000001 C 672.2079343039773 556.8861679360001 676.0937766289227 553 680.88720703125 553 C 685.6806374335773 553 689.5664797585227 556.8861679360001 689.5664797585227 561.6800000000001 C 689.5664797585227 566.473832064 685.6806374335773 570.36 680.88720703125 570.36 C 676.0937766289227 570.36 672.2079343039773 566.473832064 672.2079343039773 561.6800000000001 Z" stroke-miterlimit="10"/></g><g transform="translate(-614,-464) scale(1,1)"><path fill="none" stroke="#000000" d="M 680.88720703125 570.36 L 680.88720703125 587.64" stroke-miterlimit="10"/></g><g transform="translate(-614,-464) scale(1,1)"><path fill="none" stroke="#000000" d="M 671.6973888494318 576.84 L 690.0770252130682 576.84" stroke-miterlimit="10"/></g><g transform="translate(-614,-464) scale(1,1)"><path fill="none" stroke="#000000" d="M 680.88720703125 587.64 L 668.1235706676136 605" stroke-miterlimit="10"/></g><g transform="translate(-614,-464) scale(1,1)"><path fill="none" stroke="#000000" d="M 680.88720703125 587.64 L 693.6508433948864 605" stroke-miterlimit="10"/></g><g transform="translate(-614,-464) scale(1,1)"><g><path fill="none" stroke="none"/><text fill="#000000" stroke="none" font-family="Arial" font-size="13px" font-style="normal" font-weight="bold" text-decoration="none" x="651.6181640625" y="625.5">Empleado</text></g></g><g transform="translate(-614,-464) scale(1,1)"><path fill="none" stroke="#000000" d="M 739 581 L 930 549" stroke-miterlimit="10"/></g><g transform="translate(-614,-464) scale(1,1)"><path fill="none" stroke="#000000" d="M 920.6725861912028 554.8308962981225 L 930 549 L 919.2814561320685 546.5275887576645" stroke-miterlimit="10"/></g><g transform="translate(-614,-464) scale(1,1)"><path fill="none" stroke="#000000" d="M 739 589 L 859 585" stroke-miterlimit="10"/></g><g transform="translate(-614,-464) scale(1,1)"><path fill="none" stroke="#000000" d="M 848.9832057416654 589.5457488696798 L 859 585 L 848.7027270028594 581.1313867055028" stroke-miterlimit="10"/></g><g transform="translate(-614,-464) scale(1,1)"><path fill="none" stroke="#000000" d="M 739 596 L 875 607" stroke-miterlimit="10"/></g><g transform="translate(-614,-464) scale(1,1)"><path fill="none" stroke="#000000" d="M 864.5310373600482 610.3765102166726 L 875 607 L 865.2097722543466 601.9848787962563" stroke-miterlimit="10"/></g><g transform="translate(-614,-464) scale(1,1)"><path fill="none" stroke="#000000" d="M 739 602 L 942 641" stroke-miterlimit="10"/></g><g transform="translate(-614,-464) scale(1,1)"><path fill="none" stroke="#000000" d="M 931.2256361314599 643.2165475921569 L 942 641 L 932.814038412347 634.9487100788208" stroke-miterlimit="10"/></g></g></svg>