<svg version="1.1" xmlns="http://www.w3.org/2000/svg" xmlns:xlink="http://www.w3.org/1999/xlink" width="480" height="292"><defs/><g><text fill="#eeeeee" stroke="none" font-family="Arial" font-size="24px" font-style="normal" font-weight="normal" text-decoration="none" x="0" y="0">UNREGISTERED</text><text fill="#eeeeee" stroke="none" font-family="Arial" font-size="24px" font-style="normal" font-weight="normal" text-decoration="none" x="0" y="30">UNREGISTERED</text><text fill="#eeeeee" stroke="none" font-family="Arial" font-size="24px" font-style="normal" font-weight="normal" text-decoration="none" x="0" y="60">UNREGISTERED</text><text fill="#eeeeee" stroke="none" font-family="Arial" font-size="24px" font-style="normal" font-weight="normal" text-decoration="none" x="0" y="90">UNREGISTERED</text><text fill="#eeeeee" stroke="none" font-family="Arial" font-size="24px" font-style="normal" font-weight="normal" text-decoration="none" x="0" y="120">UNREGISTERED</text><text fill="#eeeeee" stroke="none" font-family="Arial" font-size="24px" font-style="normal" font-weight="normal" text-decoration="none" x="0" y="150">UNREGISTERED</text><text fill="#eeeeee" stroke="none" font-family="Arial" font-size="24px" font-style="normal" font-weight="normal" text-decoration="none" x="0" y="180">UNREGISTERED</text><text fill="#eeeeee" stroke="none" font-family="Arial" font-size="24px" font-style="normal" font-weight="normal" text-decoration="none" x="0" y="210">UNREGISTERED</text><text fill="#eeeeee" stroke="none" font-family="Arial" font-size="24px" font-style="normal" font-weight="normal" text-decoration="none" x="0" y="240">UNREGISTERED</text><text fill="#eeeeee" stroke="none" font-family="Arial" font-size="24px" font-style="normal" font-weight="normal" text-decoration="none" x="0" y="270">UNREGISTERED</text><text fill="#eeeeee" stroke="none" font-family="Arial" font-size="24px" font-style="normal" font-weight="normal" text-decoration="none" x="200" y="0">UNREGISTERED</text><text fill="#eeeeee" stroke="none" font-family="Arial" font-size="24px" font-style="normal" font-weight="normal" text-decoration="none" x="200" y="30">UNREGISTERED</text><text fill="#eeeeee" stroke="none" font-family="Arial" font-size="24px" font-style="normal" font-weight="normal" text-decoration="none" x="200" y="60">UNREGISTERED</text><text fill="#eeeeee" stroke="none" font-family="Arial" font-size="24px" font-style="normal" font-weight="normal" text-decoration="none" x="200" y="90">UNREGISTERED</text><text fill="#eeeeee" stroke="none" font-family="Arial" font-size="24px" font-style="normal" font-weight="normal" text-decoration="none" x="200" y="120">UNREGISTERED</text><text fill="#eeeeee" stroke="none" font-family="Arial" font-size="24px" font-style="normal" font-weight="normal" text-decoration="none" x="200" y="150">UNREGISTERED</text><text fill="#eeeeee" stroke="none" font-family="Arial" font-size="24px" font-style="normal" font-weight="normal" text-decoration="none" x="200" y="180">UNREGISTERED</text><text fill="#eeeeee" stroke="none" font-family="Arial" font-size="24px" font-style="normal" font-weight="normal" text-decoration="none" x="200" y="210">UNREGISTERED</text><text fill="#eeeeee" stroke="none" font-family="Arial" font-size="24px" font-style="normal" font-weight="normal" text-decoration="none" x="200" y="240">UNREGISTERED</text><text fill="#eeeeee" stroke="none" font-family="Arial" font-size="24px" font-style="normal" font-weight="normal" text-decoration="none" x="200" y="270">UNREGISTERED</text><text fill="#eeeeee" stroke="none" font-family="Arial" font-size="24px" font-style="normal" font-weight="normal" text-decoration="none" x="400" y="0">UNREGISTERED</text><text fill="#eeeeee" stroke="none" font-family="Arial" font-size="24px" font-style="normal" font-weight="normal" text-decoration="none" x="400" y="30">UNREGISTERED</text><text fill="#eeeeee" stroke="none" font-family="Arial" font-size="24px" font-style="normal" font-weight="normal" text-decoration="none" x="400" y="60">UNREGISTERED</text><text fill="#eeeeee" stroke="none" font-family="Arial" font-size="24px" font-style="normal" font-weight="normal" text-decoration="none" x="400" y="90">UNREGISTERED</text><text fill="#eeeeee" stroke="none" font-family="Arial" font-size="24px" font-style="normal" font-weight="normal" text-decoration="none" x="400" y="120">UNREGISTERED</text><text fill="#eeeeee" stroke="none" font-family="Arial" font-size="24px" font-style="normal" font-weight="normal" text-decoration="none" x="400" y="150">UNREGISTERED</text><text fill="#eeeeee" stroke="none" font-family="Arial" font-size="24px" font-style="normal" font-weight="normal" text-decoration="none" x="400" y="180">UNREGISTERED</text><text fill="#eeeeee" stroke="none" font-family="Arial" font-size="24px" font-style="normal" font-weight="normal" text-decoration="none" x="400" y="210">UNREGISTERED</text><text fill="#eeeeee" stroke="none" font-family="Arial" font-size="24px" font-style="normal" font-weight="normal" text-decoration="none" x="400" y="240">UNREGISTERED</text><text fill="#eeeeee" stroke="none" font-family="Arial" font-size="24px" font-style="normal" font-weight="normal" text-decoration="none" x="400" y="270">UNREGISTERED</text><g transform="translate(-574,-176) scale(1,1)"><rect fill="#C0C0C0" stroke="none" x="731" y="193" width="128" height="15" opacity="0.2"/></g><g transform="translate(-574,-176) scale(1,1)"><rect fill="#C0C0C0" stroke="none" x="731" y="207" width="320" height="258" opacity="0.2"/></g><g transform="translate(-574,-176) scale(1,1)"><rect fill="#ffffff" stroke="none" x="724" y="201" width="320" height="257"/></g><g transform="translate(-574,-176) scale(1,1)"><path fill="none" stroke="#000000" d="M 724 201 L 1044 201 L 1044 458 L 724 458 L 724 201 Z Z" stroke-miterlimit="10"/></g><g transform="translate(-574,-176) scale(1,1)"><rect fill="#ffffff" stroke="none" x="724" y="186" width="128" height="15"/></g><g transform="translate(-574,-176) scale(1,1)"><path fill="none" stroke="#000000" d="M 724 186 L 852 186 L 852 201 L 724 201 L 724 186 Z Z" stroke-miterlimit="10"/></g><g transform="translate(-574,-176) scale(1,1)"><rect fill="#ffffff" stroke="none" x="724" y="200" width="320" height="258"/></g><g transform="translate(-574,-176) scale(1,1)"><path fill="none" stroke="#000000" d="M 724 200 L 1044 200 L 1044 458 L 724 458 L 724 200 Z Z" stroke-miterlimit="10"/></g><g transform="translate(-574,-176) scale(1,1)"><g><path fill="none" stroke="none"/><text fill="#000000" stroke="none" font-family="Arial" font-size="13px" font-style="normal" font-weight="bold" text-decoration="none" x="865.569580078125" y="220.5">Pagos</text></g></g><g transform="translate(-574,-176) scale(1,1)"><path fill="#C0C0C0" stroke="none" d="M 787 330 C 787 320.6111584 840.5019664 313 906.5 313 C 972.4980336 313 1026 320.6111584 1026 330 C 1026 339.3888416 972.4980336 347 906.5 347 C 840.5019664 347 787 339.3888416 787 330 Z" opacity="0.2"/></g><g transform="translate(-574,-176) scale(1,1)"><path fill="#ffffff" stroke="none" d="M 780 323 C 780 313.6111584 833.5019664 306 899.5 306 C 965.4980336 306 1019 313.6111584 1019 323 C 1019 332.3888416 965.4980336 340 899.5 340 C 833.5019664 340 780 332.3888416 780 323 Z"/></g><g transform="translate(-574,-176) scale(1,1)"><path fill="none" stroke="#000000" d="M 780 323 C 780 313.6111584 833.5019664 306 899.5 306 C 965.4980336 306 1019 313.6111584 1019 323 C 1019 332.3888416 965.4980336 340 899.5 340 C 833.5019664 340 780 332.3888416 780 323 Z" stroke-miterlimit="10"/></g><g transform="translate(-574,-176) scale(1,1)"><g><path fill="none" stroke="none"/><text fill="#000000" stroke="none" font-family="Arial" font-size="13px" font-style="normal" font-weight="bold" text-decoration="none" x="825.42919921875" y="330">Depósito cuenta corriente</text></g></g><g transform="translate(-574,-176) scale(1,1)"><path fill="#C0C0C0" stroke="none" d="M 771 386 C 771 376.6111584 821.8156752 369 884.5 369 C 947.1843248 369 998 376.6111584 998 386 C 998 395.3888416 947.1843248 403 884.5 403 C 821.8156752 403 771 395.3888416 771 386 Z" opacity="0.2"/></g><g transform="translate(-574,-176) scale(1,1)"><path fill="#ffffff" stroke="none" d="M 764 379 C 764 369.6111584 814.8156752 362 877.5 362 C 940.1843248 362 991 369.6111584 991 379 C 991 388.3888416 940.1843248 396 877.5 396 C 814.8156752 396 764 388.3888416 764 379 Z"/></g><g transform="translate(-574,-176) scale(1,1)"><path fill="none" stroke="#000000" d="M 764 379 C 764 369.6111584 814.8156752 362 877.5 362 C 940.1843248 362 991 369.6111584 991 379 C 991 388.3888416 940.1843248 396 877.5 396 C 814.8156752 396 764 388.3888416 764 379 Z" stroke-miterlimit="10"/></g><g transform="translate(-574,-176) scale(1,1)"><g><path fill="none" stroke="none"/><text fill="#000000" stroke="none" font-family="Arial" font-size="13px" font-style="normal" font-weight="bold" text-decoration="none" x="803.79736328125" y="386">Pagos a ISAPRES o AFP</text></g></g><g transform="translate(-574,-176) scale(1,1)"><path fill="#C0C0C0" stroke="none" d="M 795 274 C 795 264.6111584 835.294368 257 885 257 C 934.705632 257 975 264.6111584 975 274 C 975 283.3888416 934.705632 291 885 291 C 835.294368 291 795 283.3888416 795 274 Z" opacity="0.2"/></g><g transform="translate(-574,-176) scale(1,1)"><path fill="#ffffff" stroke="none" d="M 788 267 C 788 257.6111584 828.294368 250 878 250 C 927.705632 250 968 257.6111584 968 267 C 968 276.3888416 927.705632 284 878 284 C 828.294368 284 788 276.3888416 788 267 Z"/></g><g transform="translate(-574,-176) scale(1,1)"><path fill="none" stroke="#000000" d="M 788 267 C 788 257.6111584 828.294368 250 878 250 C 927.705632 250 968 257.6111584 968 267 C 968 276.3888416 927.705632 284 878 284 C 828.294368 284 788 276.3888416 788 267 Z" stroke-miterlimit="10"/></g><g transform="translate(-574,-176) scale(1,1)"><g><path fill="none" stroke="none"/><text fill="#000000" stroke="none" font-family="Arial" font-size="13px" font-style="normal" font-weight="bold" text-decoration="none" x="822.715087890625" y="274">Emisión de cheque</text></g></g><g transform="translate(-574,-176) scale(1,1)"><path fill="#ffffff" stroke="none" d="M 632.2079343039773 297.68 C 632.2079343039773 292.886167936 636.0937766289227 289 640.88720703125 289 C 645.6806374335773 289 649.5664797585227 292.886167936 649.5664797585227 297.68 C 649.5664797585227 302.473832064 645.6806374335773 306.36 640.88720703125 306.36 C 636.0937766289227 306.36 632.2079343039773 302.473832064 632.2079343039773 297.68 Z"/></g><g transform="translate(-574,-176) scale(1,1)"><path fill="none" stroke="#000000" d="M 632.2079343039773 297.68 C 632.2079343039773 292.886167936 636.0937766289227 289 640.88720703125 289 C 645.6806374335773 289 649.5664797585227 292.886167936 649.5664797585227 297.68 C 649.5664797585227 302.473832064 645.6806374335773 306.36 640.88720703125 306.36 C 636.0937766289227 306.36 632.2079343039773 302.473832064 632.2079343039773 297.68 Z" stroke-miterlimit="10"/></g><g transform="translate(-574,-176) scale(1,1)"><path fill="none" stroke="#000000" d="M 640.88720703125 306.36 L 640.88720703125 323.64" stroke-miterlimit="10"/></g><g transform="translate(-574,-176) scale(1,1)"><path fill="none" stroke="#000000" d="M 631.6973888494318 312.84 L 650.0770252130682 312.84" stroke-miterlimit="10"/></g><g transform="translate(-574,-176) scale(1,1)"><path fill="none" stroke="#000000" d="M 640.88720703125 323.64 L 628.1235706676136 341" stroke-miterlimit="10"/></g><g transform="translate(-574,-176) scale(1,1)"><path fill="none" stroke="#000000" d="M 640.88720703125 323.64 L 653.6508433948864 341" stroke-miterlimit="10"/></g><g transform="translate(-574,-176) scale(1,1)"><g><path fill="none" stroke="none"/><text fill="#000000" stroke="none" font-family="Arial" font-size="13px" font-style="normal" font-weight="bold" text-decoration="none" x="591.753173828125" y="361.5">PersonalSistema</text></g></g><g transform="translate(-574,-176) scale(1,1)"><path fill="none" stroke="#000000" d="M 699 312 L 807 285" stroke-miterlimit="10"/></g><g transform="translate(-574,-176) scale(1,1)"><path fill="none" stroke="#000000" d="M 798.1617152255172 291.5486427788624 L 807 285 L 796.1197991854035 283.38097861840737" stroke-miterlimit="10"/></g><g transform="translate(-574,-176) scale(1,1)"><path fill="none" stroke="#000000" d="M 699 326 L 779 325" stroke-miterlimit="10"/></g><g transform="translate(-574,-176) scale(1,1)"><path fill="none" stroke="#000000" d="M 768.8907338698939 329.3362124383716 L 779 325 L 768.7855041467444 320.91783458642044" stroke-miterlimit="10"/></g><g transform="translate(-574,-176) scale(1,1)"><path fill="none" stroke="#000000" d="M 699 340 L 795 361" stroke-miterlimit="10"/></g><g transform="translate(-574,-176) scale(1,1)"><path fill="none" stroke="#000000" d="M 784.1725219490578 362.9405460716932 L 795 361 L 785.9716435605311 354.7159901335294" stroke-miterlimit="10"/></g></g></svg>